<svg viewBox="0 0 24 24" xmlns="http://www.w3.org/2000/svg"><path id="svg_1" fill="currentColor" d="m15.2563,5.69565l2.5641,0c0.2831,0 0.5128,-0.23374 0.5128,-0.52174l0,-3.51495c0,-0.2734 -0.2067,-0.50087 -0.4744,-0.52018c-0.8158,-0.05895 -2.4097,-0.13878 -3.55582,-0.13878c-3.1492,0 -5.20046,1.92 -5.20046,5.40939l0,3.46018l-3.58971,0c-0.28307,0 -0.51281,0.23373 -0.51281,0.52173l0,3.6522c0,0.288 0.22974,0.5217 0.51282,0.5217l3.5897,0l0,9.9131c0,0.288 0.22974,0.5217 0.51282,0.5217l3.5897,0c0.28308,0 0.51282,-0.2337 0.51282,-0.5217l0,-9.9131l3.70354,0c0.2615,0 0.481,-0.1998 0.5098,-0.4643l0.3989,-3.6522c0.0339,-0.30887 -0.2041,-0.57913 -0.5097,-0.57913l-4.10254,0l0,-2.6087c0,-0.86452 0.68871,-1.56522 1.53844,-1.56522z"></path></svg>